<?xml version="1.0" standalone="no"?>
<!DOCTYPE svg PUBLIC "-//W3C//DTD SVG 20010904//EN"
 "http://www.w3.org/TR/2001/REC-SVG-20010904/DTD/svg10.dtd">
<svg version="1.0" xmlns="http://www.w3.org/2000/svg"
 width="1137.000000pt" height="264.000000pt" viewBox="0 0 1137.000000 264.000000"
 preserveAspectRatio="xMidYMid meet">
<metadata>
Created by potrace 1.10, written by Peter Selinger 2001-2011
</metadata>
<g transform="translate(0.000000,264.000000) scale(0.100000,-0.100000)"
fill="#000000" stroke="none">
<path d="M950 2280 c-202 -43 -353 -128 -504 -283 -48 -51 -92 -101 -97 -112
-5 -11 -18 -33 -29 -50 -11 -16 -25 -41 -30 -55 -6 -13 -22 -46 -36 -73 -13
-27 -24 -57 -24 -67 0 -9 -6 -33 -14 -51 -7 -19 -19 -80 -26 -136 -11 -83 -11
-122 0 -210 7 -59 19 -120 26 -135 8 -15 14 -36 14 -46 0 -27 44 -125 63 -141
10 -7 25 -10 37 -6 19 6 21 13 17 48 -4 40 -15 78 -43 142 -7 17 -18 79 -25
138 -13 118 -1 275 27 350 8 20 21 56 30 80 9 23 20 49 25 57 4 8 18 33 29 54
32 58 102 147 151 190 24 21 55 48 69 60 14 12 32 25 40 29 8 4 29 16 45 27
17 11 37 23 45 26 8 4 43 19 78 35 34 16 73 29 86 29 13 0 40 7 59 15 20 8 65
15 101 15 l65 0 -2 -42 c-2 -41 -1 -43 28 -45 25 -2 35 4 63 42 52 71 58 91
37 115 -16 18 -30 20 -119 19 -56 -1 -139 -9 -186 -19z"/>
<path d="M2655 2295 c-5 -1 -30 -9 -55 -16 -59 -17 -102 -50 -139 -106 -61
-91 -50 -188 29 -264 42 -41 61 -50 161 -81 63 -20 132 -41 155 -47 58 -15 98
-55 98 -96 0 -42 -15 -60 -72 -85 -54 -24 -93 -25 -149 -2 -56 23 -88 53 -104
96 l-13 36 -83 0 c-95 0 -96 -1 -68 -95 15 -49 95 -145 121 -145 6 0 24 -6 40
-14 128 -61 335 -35 436 56 48 43 68 93 68 170 0 79 -25 134 -76 175 -47 36
-68 44 -302 109 -96 27 -126 75 -79 130 27 31 79 43 149 34 55 -7 93 -37 102
-80 6 -33 38 -43 121 -38 l50 3 3 47 c6 86 -71 170 -184 201 -52 15 -177 22
-209 12z"/>
<path d="M6139 2282 c-112 -37 -179 -121 -179 -225 0 -111 60 -180 195 -222
33 -10 78 -24 100 -31 22 -6 59 -17 82 -23 92 -25 134 -101 81 -147 -33 -28
-94 -54 -128 -54 -73 0 -164 59 -178 115 l-8 30 -87 3 -87 3 0 -32 c0 -42 34
-115 74 -157 38 -42 110 -75 199 -92 81 -16 191 -2 272 35 199 92 191 362 -14
433 -31 11 -82 27 -113 36 -202 56 -208 60 -208 117 0 62 42 83 159 80 35 -1
49 -7 77 -35 19 -19 34 -43 34 -55 0 -24 38 -34 120 -29 53 3 55 4 58 33 7 73
-75 179 -165 212 -64 24 -218 26 -284 5z"/>
<path d="M7064 2282 c-65 -21 -128 -71 -154 -122 -22 -43 -28 -149 -11 -193
22 -56 79 -98 181 -132 30 -10 72 -24 93 -31 20 -8 46 -14 56 -14 56 0 141
-67 141 -110 -1 -39 -93 -99 -152 -100 -36 0 -133 38 -154 61 -9 10 -19 33
-23 51 l-7 33 -87 3 -87 3 0 -40 c0 -77 70 -172 153 -209 157 -70 368 -43 466
59 90 94 83 258 -15 336 -21 17 -64 38 -94 48 -30 9 -68 21 -85 27 -16 5 -48
14 -70 18 -114 25 -163 62 -151 116 11 48 48 66 127 66 83 -1 119 -21 143 -82
l16 -40 72 0 c86 0 100 7 98 46 -4 55 -7 54 103 54 56 0 108 -4 115 -9 10 -6
13 -74 12 -321 0 -221 3 -316 11 -326 14 -17 154 -20 164 -4 4 6 6 152 5 324
-1 260 2 315 14 325 9 8 51 11 127 9 l114 -3 5 -330 5 -330 305 0 305 0 3 73
c2 54 0 72 -10 72 -7 1 -98 1 -203 0 -106 0 -197 4 -205 10 -18 11 -27 156
-11 180 8 12 46 16 198 20 l188 5 3 53 c5 83 6 82 -197 82 -124 0 -181 4 -189
12 -7 7 -12 39 -12 75 0 51 3 64 19 73 12 6 99 10 214 10 193 0 195 0 201 23
8 31 7 100 -2 114 -6 10 -148 12 -648 10 l-639 -2 -5 -58 -5 -59 -56 54 c-47
44 -68 56 -122 71 -81 21 -196 21 -263 -1z"/>
<path d="M9856 2279 c-164 -53 -265 -210 -266 -408 0 -128 52 -258 135 -333
44 -40 121 -74 202 -88 127 -23 257 20 334 109 48 55 70 105 76 174 l5 48 -83
-3 -83 -3 -16 -43 c-36 -101 -101 -140 -208 -127 -48 6 -61 13 -101 53 -133
135 -94 414 67 476 23 9 56 16 72 16 61 0 142 -57 174 -122 11 -21 18 -23 91
-23 l80 0 -2 39 c-2 22 -7 44 -13 50 -5 5 -10 18 -10 28 0 10 -26 44 -58 77
-49 50 -68 62 -126 80 -86 27 -190 27 -270 0z"/>
<path d="M3114 2256 c-11 -47 2 -579 16 -621 45 -135 218 -216 396 -186 136
23 210 72 255 168 21 45 23 64 27 331 2 155 1 294 -2 307 -6 24 -10 25 -84 25
-47 0 -83 -5 -90 -12 -9 -9 -12 -89 -12 -299 l0 -287 -26 -31 c-31 -38 -91
-55 -162 -48 -66 7 -97 26 -119 75 -15 32 -19 78 -23 317 l-5 280 -82 3 c-80
3 -83 2 -89 -22z"/>
<path d="M3895 2267 c-3 -6 -4 -190 -3 -407 l3 -395 80 0 80 0 2 125 c4 187
-10 170 143 170 174 0 243 27 294 115 50 85 50 207 1 290 -26 44 -99 97 -148
106 -72 14 -447 11 -452 -4z m412 -153 c38 -28 54 -80 42 -130 -16 -60 -43
-74 -159 -81 -129 -8 -130 -7 -130 106 0 140 -5 134 116 129 85 -3 108 -7 131
-24z"/>
<path d="M4575 2268 c-3 -7 -4 -191 -3 -408 l3 -395 294 -3 c208 -2 298 1 307
9 17 14 19 125 3 135 -6 3 -97 6 -202 5 -106 -1 -198 3 -205 7 -9 6 -12 34
-10 103 l3 94 190 5 190 5 3 56 c2 38 -1 59 -11 67 -9 7 -77 13 -193 14 l-179
3 0 80 0 80 205 5 205 5 0 70 0 70 -298 3 c-233 2 -299 0 -302 -10z"/>
<path d="M5245 2268 c-3 -7 -4 -191 -3 -408 l3 -395 74 -3 c41 -2 78 1 83 6 5
5 10 75 11 155 1 80 5 149 9 152 13 14 209 5 239 -11 41 -21 51 -45 74 -179
l21 -120 78 -3 c44 -2 83 1 88 6 6 6 3 28 -6 56 -9 26 -16 80 -16 122 0 80
-18 131 -59 168 -26 23 -27 51 -3 68 10 7 29 27 42 45 20 28 23 44 24 121 1
81 -1 92 -27 130 -15 23 -46 54 -69 69 l-41 28 -259 3 c-207 3 -259 1 -263
-10z m449 -157 c51 -48 44 -140 -14 -178 -29 -20 -45 -23 -142 -23 -107 0
-109 0 -118 26 -11 28 -13 146 -3 182 6 23 7 24 129 20 113 -3 124 -5 148 -27z"/>
<path d="M6648 2263 c-2 -9 -1 -192 2 -407 l5 -391 85 0 85 0 3 385 c1 212 0
395 -3 408 -5 21 -11 22 -89 22 -71 0 -85 -3 -88 -17z"/>
<path d="M8863 2273 c-10 -4 -13 -94 -13 -404 l0 -399 23 -5 c13 -4 50 -5 82
-3 l60 3 3 253 c2 192 5 252 15 252 13 0 31 -25 97 -135 24 -38 61 -99 84
-135 22 -36 46 -74 53 -85 7 -11 30 -50 53 -87 l41 -68 84 0 c46 0 86 4 90 9
9 16 6 794 -3 803 -5 5 -40 8 -78 6 l-69 -3 -3 -250 c-1 -137 -6 -253 -11
-258 -7 -7 -26 14 -56 65 -52 87 -101 164 -107 166 -5 2 -8 8 -8 14 0 5 -15
33 -34 61 -19 29 -53 84 -76 122 -24 39 -48 73 -54 77 -12 8 -154 9 -173 1z"/>
<path d="M10400 2265 c-3 -226 1 -788 5 -795 7 -11 572 -14 599 -4 12 5 16 21
16 69 0 35 -5 67 -11 70 -6 4 -99 7 -207 6 -108 -1 -203 3 -210 7 -9 6 -12 34
-10 103 l3 94 190 5 190 5 3 44 c7 95 17 90 -196 93 l-187 3 0 80 0 80 205 3
c148 2 206 6 212 15 9 14 11 99 2 121 -5 14 -42 16 -305 16 -259 0 -299 -2
-299 -15z"/>
<path d="M1085 2011 c-22 -10 -48 -27 -57 -37 -15 -18 -89 -147 -104 -184 -4
-8 -33 -70 -65 -137 -33 -67 -59 -128 -59 -136 0 -7 -5 -18 -11 -24 -25 -25
-72 -179 -76 -249 -4 -64 -1 -81 28 -150 57 -136 188 -249 309 -263 45 -6 45
-6 50 -50 3 -30 12 -48 27 -58 19 -13 23 -12 41 8 11 11 20 34 20 49 -1 37 9
50 40 51 15 0 47 11 72 24 25 13 55 29 67 34 41 19 118 108 151 175 30 60 32
73 32 165 0 64 -5 112 -14 133 -8 18 -22 53 -31 78 -10 25 -28 68 -41 97 -13
29 -29 62 -34 75 -5 13 -14 30 -19 38 -4 8 -23 46 -42 85 -19 38 -46 91 -61
118 -16 26 -28 53 -28 60 -1 15 -62 82 -87 95 -39 20 -69 21 -108 3z m102
-108 c42 -54 224 -427 256 -523 51 -157 49 -141 31 -200 -9 -30 -21 -68 -27
-85 -16 -43 -103 -132 -151 -154 -61 -28 -115 -43 -126 -36 -5 3 -10 29 -10
57 0 49 2 52 75 127 41 43 75 83 75 89 0 23 -24 11 -77 -39 -29 -27 -58 -47
-63 -44 -6 4 -10 75 -10 179 l0 172 61 62 c54 54 67 82 38 82 -5 0 -27 -16
-49 -36 -32 -29 -41 -33 -45 -20 -3 9 -7 24 -10 33 -4 12 -9 13 -16 6 -7 -7
-12 -71 -13 -164 -1 -168 -6 -181 -53 -131 -40 42 -80 66 -88 52 -4 -6 26 -45
67 -86 l73 -76 -1 -129 c0 -71 -4 -132 -7 -136 -10 -9 -102 15 -148 38 -46 23
-124 109 -149 165 -28 60 -27 179 1 259 11 33 25 64 30 69 5 6 9 16 9 24 0 7
13 40 30 74 16 33 30 65 30 71 0 6 6 18 13 26 8 9 24 41 37 71 12 30 25 57 29
60 4 3 15 25 26 50 11 25 33 64 50 87 40 56 72 58 112 6z"/>
<path d="M1132 1628 c2 -13 8 -23 13 -23 6 0 11 10 13 23 2 15 -2 22 -13 22
-11 0 -15 -7 -13 -22z"/>
<path d="M952 1359 c2 -7 10 -15 17 -17 8 -3 12 1 9 9 -2 7 -10 15 -17 17 -8
3 -12 -1 -9 -9z"/>
<path d="M1938 1765 c-9 -21 -8 -35 9 -78 64 -168 82 -293 64 -434 -8 -54 -20
-113 -27 -132 -8 -18 -14 -41 -14 -51 0 -29 -69 -160 -122 -232 -111 -151
-283 -272 -458 -321 -76 -21 -218 -42 -227 -33 -4 4 -2 20 4 36 9 24 8 32 -9
49 -10 12 -22 21 -27 21 -24 0 -111 -116 -111 -149 0 -41 71 -53 235 -37 91 8
220 40 231 57 3 5 14 9 24 9 11 0 42 14 70 30 28 17 53 30 55 30 14 0 131 91
188 147 89 87 207 266 207 314 0 8 4 19 10 25 5 5 20 46 32 89 18 67 21 107
21 245 1 196 -13 262 -83 400 -23 45 -55 52 -72 15z"/>
<path d="M2384 457 c-15 -8 -20 -119 -8 -165 l6 -22 4427 2 4426 3 3 93 c1 50
-1 92 -5 92 -3233 5 -8838 3 -8849 -3z"/>
</g>
</svg>
